<svg width="83" height="93" viewBox="0 0 83 93" fill="none" xmlns="http://www.w3.org/2000/svg">
<g clip-path="url(#clip0_1809_71)">
<path d="M39.1755 54.3698L39.1516 52.4361C39.1292 50.6302 40.5743 49.1476 42.3789 49.1251H42.4322H51.4259C56.5336 49.1251 60.8787 48.1961 64.3377 46.365C67.7377 44.5662 70.2234 42.2277 71.934 39.216C73.681 36.1411 74.5307 32.7852 74.5307 28.9542C74.5307 22.5824 72.6516 17.6989 68.7854 14.0239C64.9107 10.3433 59.0685 8.47701 51.4245 8.47701H42.4308C40.6262 8.47701 39.1629 7.01265 39.1629 5.20678V3.27163C39.1629 1.46577 40.6262 0.00140381 42.4308 0.00140381H51.4245C61.3113 0.00140381 69.114 2.65188 74.6163 7.87834C80.1791 13.1666 82.999 20.2566 82.999 28.9542C82.999 34.22 81.752 39.0825 79.2943 43.4067C76.7959 47.7998 73.0968 51.316 68.2966 53.8569C63.6046 56.3415 57.9281 57.6007 51.4245 57.6007H42.4828C40.6782 57.6232 39.1966 56.1771 39.1741 54.3712L39.1755 54.3698Z" fill="#55B68A"/>
<path d="M61.9943 16.1319C58.6505 12.9558 53.8518 11.3664 47.5967 11.3664H29.9802C29.8327 11.3664 29.6881 11.3748 29.5448 11.3889C29.4002 11.3804 29.2555 11.3664 29.1095 11.3664H28.5843C24.3262 11.3664 20.8728 14.8207 20.8728 19.0831V44.368C20.8728 45.9111 20.6088 46.9946 20.0794 47.6186C19.5485 48.2439 18.8014 48.5587 17.8422 48.5587C16.6878 48.5587 15.7721 48.1385 15.0994 47.2953C15.025 47.2012 14.9534 47.1 14.8874 46.9918C13.403 44.569 10.9341 42.9261 8.09441 42.9261H7.7363C1.71293 42.9261 -2.01148 49.5467 1.15399 54.6748C1.88567 55.8609 2.75919 56.9275 3.77174 57.8733C7.42452 61.2939 12.3581 63.0014 18.5654 63.0014C24.3388 63.0014 28.8216 61.426 32.0222 58.271C34.873 55.4604 36.4445 51.4664 36.7549 46.3032L41.2475 46.2483H47.5953C51.7326 46.2483 55.2562 45.481 58.1688 43.938C61.0787 42.3977 63.2779 40.315 64.7694 37.6912C66.2608 35.0675 67.0066 32.1444 67.0066 28.9177C67.0066 23.576 65.3354 19.315 61.9915 16.1361L61.9943 16.1319ZM45.0674 34.8904C43.642 34.8904 42.3331 34.4098 41.2784 33.6101H41.2489V33.589C39.7518 32.4395 38.7828 30.6364 38.7828 28.6029C38.7828 25.1303 41.5958 22.3154 45.066 22.3154C48.5362 22.3154 51.3492 25.1303 51.3492 28.6029C51.3492 32.0755 48.5362 34.8904 45.066 34.8904H45.0674Z" fill="#FAFAFA"/>
</g>
<path d="M11.4119 78.08C11.0065 78.08 10.6705 77.9573 10.4039 77.712C10.1479 77.456 10.0199 77.1413 10.0199 76.768C10.0199 76.3947 10.1479 76.0853 10.4039 75.84C10.6705 75.584 11.0065 75.456 11.4119 75.456C11.8065 75.456 12.1319 75.584 12.3879 75.84C12.6439 76.0853 12.7719 76.3947 12.7719 76.768C12.7719 77.1413 12.6439 77.456 12.3879 77.712C12.1319 77.9573 11.8065 78.08 11.4119 78.08ZM12.5159 89.456C12.5159 90.4373 12.2705 91.1413 11.7799 91.568C11.2999 92.0053 10.6065 92.224 9.69987 92.224H8.70787V90.32H9.34788C9.68921 90.32 9.92921 90.2507 10.0679 90.112C10.2065 89.984 10.2759 89.7707 10.2759 89.472V79.136H12.5159V89.456ZM23.097 79.136V88H20.841V86.88C20.553 87.264 20.1743 87.568 19.705 87.792C19.2463 88.0053 18.745 88.112 18.201 88.112C17.5077 88.112 16.8943 87.968 16.361 87.68C15.8277 87.3813 15.4063 86.9493 15.097 86.384C14.7983 85.808 14.649 85.1253 14.649 84.336V79.136H16.889V84.016C16.889 84.72 17.065 85.264 17.417 85.648C17.769 86.0213 18.249 86.208 18.857 86.208C19.4757 86.208 19.961 86.0213 20.313 85.648C20.665 85.264 20.841 84.72 20.841 84.016V79.136H23.097ZM28.6991 88.144C27.9738 88.144 27.3231 88.016 26.7471 87.76C26.1711 87.4933 25.7125 87.136 25.3711 86.688C25.0405 86.24 24.8591 85.744 24.8271 85.2H27.0831C27.1258 85.5413 27.2911 85.824 27.5791 86.048C27.8778 86.272 28.2458 86.384 28.6831 86.384C29.1098 86.384 29.4405 86.2987 29.6751 86.128C29.9205 85.9573 30.0431 85.7387 30.0431 85.472C30.0431 85.184 29.8938 84.9707 29.5951 84.832C29.3071 84.6827 28.8431 84.5227 28.2031 84.352C27.5418 84.192 26.9978 84.0267 26.5711 83.856C26.1551 83.6853 25.7925 83.424 25.4831 83.072C25.1845 82.72 25.0351 82.2453 25.0351 81.648C25.0351 81.1573 25.1738 80.7093 25.4511 80.304C25.7391 79.8987 26.1445 79.5787 26.6671 79.344C27.2005 79.1093 27.8245 78.992 28.5391 78.992C29.5951 78.992 30.4378 79.2587 31.0671 79.792C31.6965 80.3147 32.0431 81.024 32.1071 81.92H29.9631C29.9311 81.568 29.7818 81.2907 29.5151 81.088C29.2591 80.8747 28.9125 80.768 28.4751 80.768C28.0698 80.768 27.7551 80.8427 27.5311 80.992C27.3178 81.1413 27.2111 81.3493 27.2111 81.616C27.2111 81.9147 27.3605 82.144 27.6591 82.304C27.9578 82.4533 28.4218 82.608 29.0511 82.768C29.6911 82.928 30.2191 83.0933 30.6351 83.264C31.0511 83.4347 31.4085 83.7013 31.7071 84.064C32.0165 84.416 32.1765 84.8853 32.1871 85.472C32.1871 85.984 32.0431 86.4427 31.7551 86.848C31.4778 87.2533 31.0725 87.5733 30.5391 87.808C30.0165 88.032 29.4031 88.144 28.6991 88.144ZM36.2659 80.416C36.5539 80.0107 36.9485 79.6747 37.4499 79.408C37.9619 79.1307 38.5432 78.992 39.1939 78.992C39.9512 78.992 40.6339 79.1787 41.2419 79.552C41.8605 79.9253 42.3459 80.4587 42.6979 81.152C43.0605 81.8347 43.2419 82.6293 43.2419 83.536C43.2419 84.4427 43.0605 85.248 42.6979 85.952C42.3459 86.6453 41.8605 87.184 41.2419 87.568C40.6339 87.952 39.9512 88.144 39.1939 88.144C38.5432 88.144 37.9672 88.0107 37.4659 87.744C36.9752 87.4773 36.5752 87.1413 36.2659 86.736V92.224H34.0259V79.136H36.2659V80.416ZM40.9539 83.536C40.9539 83.0027 40.8419 82.544 40.6179 82.16C40.4045 81.7653 40.1165 81.4667 39.7539 81.264C39.4019 81.0613 39.0179 80.96 38.6019 80.96C38.1965 80.96 37.8125 81.0667 37.4499 81.28C37.0979 81.4827 36.8099 81.7813 36.5859 82.176C36.3725 82.5707 36.2659 83.0347 36.2659 83.568C36.2659 84.1013 36.3725 84.5653 36.5859 84.96C36.8099 85.3547 37.0979 85.6587 37.4499 85.872C37.8125 86.0747 38.1965 86.176 38.6019 86.176C39.0179 86.176 39.4019 86.0693 39.7539 85.856C40.1165 85.6427 40.4045 85.3387 40.6179 84.944C40.8419 84.5493 40.9539 84.08 40.9539 83.536ZM53.1096 83.376C53.1096 83.696 53.0883 83.984 53.0456 84.24H46.5656C46.619 84.88 46.843 85.3813 47.2376 85.744C47.6323 86.1067 48.1176 86.288 48.6936 86.288C49.5256 86.288 50.1176 85.9307 50.4696 85.216H52.8856C52.6296 86.0693 52.139 86.7733 51.4136 87.328C50.6883 87.872 49.7976 88.144 48.7416 88.144C47.8883 88.144 47.1203 87.9573 46.4376 87.584C45.7656 87.2 45.2376 86.6613 44.8536 85.968C44.4803 85.2747 44.2936 84.4747 44.2936 83.568C44.2936 82.6507 44.4803 81.8453 44.8536 81.152C45.227 80.4587 45.7496 79.9253 46.4216 79.552C47.0936 79.1787 47.867 78.992 48.7416 78.992C49.5843 78.992 50.3363 79.1733 50.9976 79.536C51.6696 79.8987 52.187 80.416 52.5496 81.088C52.923 81.7493 53.1096 82.512 53.1096 83.376ZM50.7896 82.736C50.779 82.16 50.571 81.7013 50.1656 81.36C49.7603 81.008 49.2643 80.832 48.6776 80.832C48.123 80.832 47.6536 81.0027 47.2696 81.344C46.8963 81.6747 46.667 82.1387 46.5816 82.736H50.7896ZM54.1686 83.536C54.1686 82.64 54.3446 81.8453 54.6966 81.152C55.0593 80.4587 55.5446 79.9253 56.1526 79.552C56.7713 79.1787 57.4593 78.992 58.2166 78.992C58.878 78.992 59.454 79.1253 59.9446 79.392C60.446 79.6587 60.846 79.9947 61.1446 80.4V79.136H63.4006V88H61.1446V86.704C60.8566 87.12 60.4566 87.4667 59.9446 87.744C59.4433 88.0107 58.862 88.144 58.2006 88.144C57.454 88.144 56.7713 87.952 56.1526 87.568C55.5446 87.184 55.0593 86.6453 54.6966 85.952C54.3446 85.248 54.1686 84.4427 54.1686 83.536ZM61.1446 83.568C61.1446 83.024 61.038 82.56 60.8246 82.176C60.6113 81.7813 60.3233 81.4827 59.9606 81.28C59.598 81.0667 59.2086 80.96 58.7926 80.96C58.3766 80.96 57.9926 81.0613 57.6406 81.264C57.2886 81.4667 57.0006 81.7653 56.7766 82.16C56.5633 82.544 56.4566 83.0027 56.4566 83.536C56.4566 84.0693 56.5633 84.5387 56.7766 84.944C57.0006 85.3387 57.2886 85.6427 57.6406 85.856C58.0033 86.0693 58.3873 86.176 58.7926 86.176C59.2086 86.176 59.598 86.0747 59.9606 85.872C60.3233 85.6587 60.6113 85.36 60.8246 84.976C61.038 84.5813 61.1446 84.112 61.1446 83.568ZM70.8364 88L67.8284 84.224V88H65.5884V76.16H67.8284V82.896L70.8044 79.136H73.7164L69.8124 83.584L73.7484 88H70.8364Z" fill="#41C78F"/>
<defs>
<clipPath id="clip0_1809_71">
<rect width="83" height="63" fill="white"/>
</clipPath>
</defs>
</svg>
