<svg width="151" height="109" viewBox="0 0 151 109" fill="none" xmlns="http://www.w3.org/2000/svg">
<path d="M151 76.121C150.229 79.2768 149.727 82.5321 148.635 85.573C143.713 99.2645 130.186 109.214 115.557 108.992C106.22 108.851 96.8836 108.965 87.5433 108.965C86.9569 108.965 86.3705 108.965 85.676 108.965V76.4657C89.1676 76.4657 92.5935 76.4887 96.0194 76.458C98.0526 76.4389 99.5611 75.2938 99.5534 73.5052C99.5534 72.5248 99.0866 71.4065 98.4963 70.5869C91.899 61.4222 85.2401 52.3035 78.5849 43.1809C76.6713 40.5575 74.2832 40.5536 72.3735 43.1732C66.9568 50.5954 61.5555 58.0328 56.1465 65.4627C54.8232 67.2818 53.5115 69.1048 52.1805 70.9201C51.3047 72.1189 50.9922 73.3789 51.7445 74.7423C52.4621 76.0406 53.6311 76.4848 55.0702 76.4733C57.9213 76.4504 60.7723 76.4657 63.6196 76.4695C64.1481 76.4695 64.6728 76.4695 65.2978 76.4695V108.965H63.5733C52.8595 108.965 42.1457 108.912 31.4319 108.981C20.7914 109.05 12.6201 104.389 6.46265 96.0934C1.3083 89.1423 -0.886922 81.2453 0.328362 72.6359C1.5475 64.0188 5.81836 57.1099 12.9365 51.9703C13.3338 51.683 13.7273 51.3843 14.1633 51.1584C14.9812 50.7332 15.178 50.2392 14.8963 49.2817C10.7528 35.2034 21.6981 21.6229 36.4165 22.5995C38.2607 22.7221 40.0778 23.2238 41.976 23.5646C43.2453 21.5501 44.4258 19.2944 45.9536 17.3029C56.1736 3.99051 69.6999 -1.91505 86.4322 0.543684C104.083 3.13646 117.779 16.4374 120.993 33.8055C121.513 36.6128 122.489 37.5894 125.19 38.4549C139.939 43.1656 148.161 53.5443 150.692 68.5648C150.773 69.0397 150.896 69.5031 151 69.9742C151 72.0231 151 74.0721 151 76.121Z" fill="#111219"/>
</svg>
